<?xml version="1.0" encoding="UTF-8" standalone="no"?>
<!-- Created with Inkscape (http://www.inkscape.org/) -->

<svg
   width="43.830524mm"
   height="26.652533mm"
   viewBox="0 0 43.830524 26.652533"
   version="1.1"
   id="svg9921"
   xmlns="http://www.w3.org/2000/svg"
   xmlns:svg="http://www.w3.org/2000/svg">
  <defs
     id="defs9918">
    <marker
       style="overflow:visible"
       id="RoundedArrow-0"
       refX="0"
       refY="0"
       orient="auto-start-reverse"
       markerWidth="5.1350002"
       markerHeight="4.9640298"
       viewBox="0 0 6.1347524 5.9304951"
       preserveAspectRatio="xMidYMid">
      <path
         transform="scale(0.7)"
         d="m -0.21114562,-4.1055728 6.42229122,3.21114561 a 1,1 90 0 1 0,1.78885438 L -0.21114562,4.1055728 A 1.236068,1.236068 31.717474 0 1 -2,3 v -6 a 1.236068,1.236068 148.28253 0 1 1.78885438,-1.1055728 z"
         style="fill:context-stroke;fill-rule:evenodd;stroke:none"
         id="path1367-6" />
    </marker>
    <marker
       style="overflow:visible"
       id="RoundedArrow-6-3"
       refX="0"
       refY="0"
       orient="auto-start-reverse"
       markerWidth="5.1350002"
       markerHeight="4.9640298"
       viewBox="0 0 6.1347524 5.9304951"
       preserveAspectRatio="xMidYMid">
      <path
         transform="scale(0.7)"
         d="m -0.21114562,-4.1055728 6.42229122,3.21114561 a 1,1 90 0 1 0,1.78885438 L -0.21114562,4.1055728 A 1.236068,1.236068 31.717474 0 1 -2,3 v -6 a 1.236068,1.236068 148.28253 0 1 1.78885438,-1.1055728 z"
         style="fill:context-stroke;fill-rule:evenodd;stroke:none"
         id="path1367-1-2" />
    </marker>
    <marker
       style="overflow:visible"
       id="RoundedArrow-2-0"
       refX="0"
       refY="0"
       orient="auto-start-reverse"
       markerWidth="5.1350002"
       markerHeight="4.9640298"
       viewBox="0 0 6.1347524 5.9304951"
       preserveAspectRatio="xMidYMid">
      <path
         transform="scale(0.7)"
         d="m -0.21114562,-4.1055728 6.42229122,3.21114561 a 1,1 90 0 1 0,1.78885438 L -0.21114562,4.1055728 A 1.236068,1.236068 31.717474 0 1 -2,3 v -6 a 1.236068,1.236068 148.28253 0 1 1.78885438,-1.1055728 z"
         style="fill:context-stroke;fill-rule:evenodd;stroke:none"
         id="path1367-3-6" />
    </marker>
  </defs>
  <g
     id="layer1"
     transform="translate(-28.982499,-38.439071)">
    <g
       id="g8255"
       transform="translate(-16.845423,21.906279)">
      <g
         aria-label="generate"
         id="text790-3-1"
         style="font-style:italic;font-size:3.52778px;line-height:1.25;font-family:Hack;-inkscape-font-specification:'Hack Italic';letter-spacing:0px;word-spacing:0px;stroke-width:0.264583">
        <path
           d="m 49.085113,21.34128 q -0.139526,0 -0.280775,-0.02584 -0.139527,-0.02584 -0.275608,-0.0689 v -0.313504 q 0.130914,0.06201 0.275608,0.108521 0.146417,0.04651 0.298001,0.04651 0.186035,0 0.289388,-0.07407 0.103353,-0.07407 0.144694,-0.206706 0.04306,-0.130914 0.04306,-0.301446 v -0.229099 q -0.07751,0.165365 -0.210151,0.242879 -0.132636,0.07751 -0.311781,0.07751 -0.204984,0 -0.347955,-0.08785 -0.142972,-0.08785 -0.230822,-0.232544 -0.08613,-0.146417 -0.125746,-0.322117 -0.03962,-0.177422 -0.03962,-0.353122 0,-0.1757 0.03962,-0.3514 0.03962,-0.1757 0.127469,-0.320394 0.08785,-0.146417 0.230821,-0.234267 0.144694,-0.08785 0.3514,-0.08785 0.173978,0 0.303169,0.07235 0.129191,0.07235 0.213596,0.230822 l 0.03101,-0.24977 h 0.285943 v 1.798341 q 0,0.404799 -0.192926,0.642511 -0.191203,0.239434 -0.618395,0.239434 z m 0.03617,-1.007691 q 0.225654,0 0.341065,-0.187758 0.117133,-0.187757 0.117133,-0.546048 0,-0.11541 -0.01723,-0.241156 -0.01722,-0.125747 -0.06546,-0.234267 -0.04651,-0.110243 -0.137804,-0.179145 -0.09129,-0.0689 -0.239435,-0.0689 -0.229099,0 -0.3514,0.18259 -0.120578,0.18259 -0.120578,0.537435 0,0.35829 0.124023,0.547771 0.124024,0.18948 0.349678,0.18948 z"
           style="font-style:normal;-inkscape-font-specification:Hack"
           id="path10521" />
        <path
           d="m 51.345098,20.633313 q -0.446141,0 -0.701078,-0.266995 -0.253215,-0.268718 -0.253215,-0.732084 0,-0.287665 0.09991,-0.520209 0.101631,-0.232545 0.299724,-0.368626 0.199815,-0.137804 0.492649,-0.137804 0.385851,0 0.597724,0.248047 0.213596,0.246325 0.213596,0.683852 v 0.15503 h -1.372871 v 0.01033 q 0,0.301446 0.158474,0.480591 0.158475,0.179145 0.468534,0.179145 0.179145,0 0.346232,-0.05684 0.16881,-0.05684 0.325562,-0.137804 v 0.315226 q -0.163642,0.06718 -0.332452,0.106799 -0.167088,0.04134 -0.342787,0.04134 z m 0.432359,-1.186836 q 0,-0.160198 -0.04823,-0.289389 -0.04823,-0.129191 -0.15503,-0.204983 -0.105075,-0.07579 -0.279052,-0.07579 -0.1757,0 -0.294556,0.07752 -0.117134,0.07579 -0.184313,0.204983 -0.06546,0.129191 -0.08268,0.287666 z"
           style="font-style:normal;-inkscape-font-specification:Hack"
           id="path10523" />
        <path
           d="m 52.637009,18.654104 h 0.285943 l 0.03101,0.289388 q 0.173978,-0.335897 0.566719,-0.335897 0.590834,0 0.590834,0.780315 v 1.195449 H 53.792839 V 19.38791 q 0,-0.260105 -0.0913,-0.382406 -0.08957,-0.122301 -0.279053,-0.122301 -0.225653,0 -0.347954,0.160197 -0.120579,0.158475 -0.120579,0.449585 v 1.090374 h -0.316949 z"
           style="font-style:normal;-inkscape-font-specification:Hack"
           id="path10525" />
        <path
           d="m 55.592903,20.633313 q -0.44614,0 -0.701077,-0.266995 -0.253215,-0.268718 -0.253215,-0.732084 0,-0.287665 0.09991,-0.520209 0.10163,-0.232545 0.299723,-0.368626 0.199816,-0.137804 0.492649,-0.137804 0.385851,0 0.597725,0.248047 0.213596,0.246325 0.213596,0.683852 v 0.15503 H 54.96934 v 0.01033 q 0,0.301446 0.158475,0.480591 0.158474,0.179145 0.468533,0.179145 0.179145,0 0.346233,-0.05684 0.168809,-0.05684 0.325561,-0.137804 v 0.315226 q -0.163642,0.06718 -0.332452,0.106799 -0.167087,0.04134 -0.342787,0.04134 z m 0.43236,-1.186836 q 0,-0.160198 -0.04823,-0.289389 -0.04823,-0.129191 -0.155029,-0.204983 -0.105075,-0.07579 -0.279053,-0.07579 -0.1757,0 -0.294556,0.07752 -0.117133,0.07579 -0.184312,0.204983 -0.06546,0.129191 -0.08268,0.287666 z"
           style="font-style:normal;-inkscape-font-specification:Hack"
           id="path10527" />
        <path
           d="m 57.069128,18.654104 h 0.287665 l 0.03101,0.377238 q 0.08096,-0.204983 0.242879,-0.313504 0.163643,-0.110243 0.391019,-0.110243 0.237712,0 0.413412,0.120579 v 0.323839 q -0.186036,-0.151584 -0.440973,-0.151584 -0.292833,0 -0.449585,0.187757 -0.156752,0.186036 -0.156752,0.535713 v 0.95946 h -0.318671 z"
           style="font-style:normal;-inkscape-font-specification:Hack"
           id="path10529" />
        <path
           d="m 59.549598,20.633313 q -0.279053,0 -0.461643,-0.160197 -0.180867,-0.16192 -0.180867,-0.463366 0,-0.24977 0.120578,-0.389296 0.120579,-0.141249 0.315227,-0.198093 0.194648,-0.05684 0.415134,-0.05684 h 0.425469 v -0.04995 q 0,-0.246325 -0.125746,-0.342787 -0.124023,-0.09646 -0.349677,-0.09646 -0.1757,0 -0.34451,0.04823 -0.16881,0.04823 -0.315226,0.134359 v -0.316949 q 0.158474,-0.05857 0.320394,-0.09646 0.161919,-0.0379 0.330729,-0.0379 0.172255,0 0.334175,0.04823 0.163642,0.04651 0.282498,0.155029 0.118856,0.106798 0.158474,0.287666 0.02756,0.127468 0.02756,0.384128 v 0.394464 q 0,0.161919 0.01723,0.35829 0.01895,0.19637 0.0844,0.347955 h -0.318671 q -0.02928,-0.06718 -0.04651,-0.142972 -0.01723,-0.07751 -0.02756,-0.149862 -0.10163,0.173978 -0.282498,0.258383 -0.179145,0.08441 -0.378961,0.08441 z m 0.07751,-0.265273 q 0.196371,0 0.318672,-0.09646 0.124023,-0.09646 0.180867,-0.251492 0.05684,-0.156752 0.05684,-0.335897 v -0.07062 h -0.401353 q -0.134359,0 -0.26355,0.03101 -0.127469,0.02928 -0.211874,0.113688 -0.08268,0.08441 -0.08268,0.246324 0,0.182591 0.111965,0.273886 0.111966,0.08957 0.291111,0.08957 z"
           style="font-style:normal;-inkscape-font-specification:Hack"
           id="path10531" />
        <path
           d="m 62.18682,20.590249 q -0.354845,0 -0.502984,-0.142972 -0.146417,-0.144694 -0.146417,-0.492649 v -1.054199 h -0.515042 v -0.246325 h 0.515042 v -0.504707 l 0.316949,-0.137804 v 0.642511 h 0.720026 v 0.246325 h -0.720026 v 1.054199 q 0,0.211874 0.08096,0.298001 0.08096,0.08441 0.282498,0.08441 h 0.356568 v 0.253215 z"
           style="font-style:normal;-inkscape-font-specification:Hack"
           id="path10533" />
        <path
           d="m 64.088514,20.633313 q -0.44614,0 -0.701078,-0.266995 -0.253214,-0.268718 -0.253214,-0.732084 0,-0.287665 0.09991,-0.520209 0.10163,-0.232545 0.299723,-0.368626 0.199816,-0.137804 0.492649,-0.137804 0.385851,0 0.597725,0.248047 0.213596,0.246325 0.213596,0.683852 v 0.15503 h -1.372872 v 0.01033 q 0,0.301446 0.158475,0.480591 0.158474,0.179145 0.468533,0.179145 0.179145,0 0.346232,-0.05684 0.16881,-0.05684 0.325562,-0.137804 v 0.315226 q -0.163642,0.06718 -0.332452,0.106799 -0.167087,0.04134 -0.342787,0.04134 z m 0.43236,-1.186836 q 0,-0.160198 -0.04823,-0.289389 -0.04823,-0.129191 -0.155029,-0.204983 -0.105076,-0.07579 -0.279053,-0.07579 -0.1757,0 -0.294556,0.07752 -0.117133,0.07579 -0.184313,0.204983 -0.06546,0.129191 -0.08268,0.287666 z"
           style="font-style:normal;-inkscape-font-specification:Hack"
           id="path10535" />
      </g>
      <g
         aria-label="run"
         id="text790-3-7-4"
         style="font-style:italic;font-size:3.52778px;line-height:1.25;font-family:Hack;-inkscape-font-specification:'Hack Italic';letter-spacing:0px;word-spacing:0px;stroke-width:0.264583">
        <path
           d="m 53.806621,28.904762 h 0.287666 l 0.03101,0.377238 q 0.08096,-0.204983 0.242879,-0.313504 0.163642,-0.110243 0.391019,-0.110243 0.237711,0 0.413411,0.120579 v 0.323839 q -0.186035,-0.151584 -0.440972,-0.151584 -0.292834,0 -0.449585,0.187757 -0.156752,0.186036 -0.156752,0.535713 v 0.95946 h -0.318672 z"
           style="font-style:normal;-inkscape-font-specification:Hack"
           id="path10538" />
        <path
           d="m 56.3336,30.883971 q -0.587389,0 -0.587389,-0.780315 v -1.195449 h 0.316949 v 1.195449 q 0,0.504707 0.377238,0.504707 0.220487,0 0.341065,-0.158475 0.120578,-0.160197 0.120578,-0.451307 v -1.090374 h 0.318672 v 1.92581 h -0.287666 l -0.03101,-0.289388 q -0.172254,0.339342 -0.568441,0.339342 z"
           style="font-style:normal;-inkscape-font-specification:Hack"
           id="path10540" />
        <path
           d="m 57.870114,28.904762 h 0.285943 l 0.03101,0.289388 q 0.173977,-0.335897 0.566718,-0.335897 0.590835,0 0.590835,0.780315 v 1.195449 h -0.318672 v -1.195449 q 0,-0.260105 -0.0913,-0.382406 -0.08957,-0.122301 -0.279053,-0.122301 -0.225654,0 -0.347955,0.160197 -0.120578,0.158475 -0.120578,0.449585 v 1.090374 h -0.316949 z"
           style="font-style:normal;-inkscape-font-specification:Hack"
           id="path10542" />
      </g>
      <g
         aria-label="report"
         id="text790-3-7-3-6"
         style="font-style:italic;font-size:3.52778px;line-height:1.25;font-family:Hack;-inkscape-font-specification:'Hack Italic';letter-spacing:0px;word-spacing:0px;stroke-width:0.264583">
        <path
           d="m 50.63713,39.043459 h 0.287666 l 0.03101,0.377238 q 0.08096,-0.204983 0.242879,-0.313504 0.163642,-0.110243 0.391019,-0.110243 0.237711,0 0.413411,0.120578 v 0.32384 q -0.186035,-0.151585 -0.440972,-0.151585 -0.292833,0 -0.449585,0.187758 -0.156752,0.186035 -0.156752,0.535713 v 0.959459 H 50.63713 Z"
           style="font-style:normal;-inkscape-font-specification:Hack"
           id="path10545" />
        <path
           d="m 53.408711,41.022667 q -0.44614,0 -0.701077,-0.266995 -0.253215,-0.268717 -0.253215,-0.732083 0,-0.287666 0.09991,-0.52021 0.101631,-0.232544 0.299724,-0.368625 0.199815,-0.137804 0.492649,-0.137804 0.385851,0 0.597724,0.248047 0.213596,0.246324 0.213596,0.683852 v 0.155029 h -1.372871 v 0.01034 q 0,0.301446 0.158474,0.480591 0.158475,0.179145 0.468533,0.179145 0.179146,0 0.346233,-0.05684 0.16881,-0.05684 0.325562,-0.137804 v 0.315226 q -0.163643,0.06718 -0.332452,0.106798 -0.167088,0.04134 -0.342788,0.04134 z m 0.43236,-1.186836 q 0,-0.160197 -0.04823,-0.289388 -0.04823,-0.129191 -0.15503,-0.204983 -0.105075,-0.07579 -0.279053,-0.07579 -0.1757,0 -0.294555,0.07751 -0.117134,0.07579 -0.184313,0.204984 -0.06546,0.129191 -0.08268,0.287665 z"
           style="font-style:normal;-inkscape-font-specification:Hack"
           id="path10547" />
        <path
           d="m 54.69201,39.043459 h 0.287666 l 0.03101,0.246324 q 0.165365,-0.292833 0.518487,-0.292833 0.346232,0 0.544326,0.27044 0.199815,0.27044 0.199815,0.738974 0,0.471978 -0.201538,0.744141 -0.199816,0.272162 -0.542603,0.272162 -0.361735,0 -0.518487,-0.292833 v 0.976685 H 54.69201 Z m 0.795818,1.710491 q 0.45303,0 0.45303,-0.744141 0,-0.744141 -0.45303,-0.744141 -0.232544,0 -0.354845,0.192925 -0.122301,0.192925 -0.122301,0.549493 0,0.35829 0.122301,0.552938 0.124023,0.192926 0.354845,0.192926 z"
           style="font-style:normal;-inkscape-font-specification:Hack"
           id="path10549" />
        <path
           d="m 57.553164,41.022667 q -0.403076,0 -0.616672,-0.260104 -0.211874,-0.261828 -0.211874,-0.751032 0,-0.490926 0.213596,-0.752754 0.213596,-0.261827 0.613228,-0.261827 0.399631,0 0.611504,0.261827 0.213596,0.260105 0.213596,0.754477 0,0.490926 -0.211873,0.751031 -0.211874,0.258382 -0.611505,0.258382 z m -0.0017,-0.268717 q 0.235989,0 0.361735,-0.192926 0.127468,-0.192925 0.127468,-0.552938 0,-0.35829 -0.127468,-0.549493 -0.125746,-0.192925 -0.361735,-0.192925 -0.237712,0 -0.365181,0.192925 -0.125746,0.191203 -0.125746,0.549493 0,0.360013 0.127469,0.552938 0.127468,0.192926 0.363458,0.192926 z"
           style="font-style:normal;-inkscape-font-specification:Hack"
           id="path10551" />
        <path
           d="m 59.132741,39.043459 h 0.287666 l 0.03101,0.377238 q 0.08096,-0.204983 0.242879,-0.313504 0.163642,-0.110243 0.391019,-0.110243 0.237712,0 0.413412,0.120578 v 0.32384 q -0.186036,-0.151585 -0.440973,-0.151585 -0.292833,0 -0.449585,0.187758 -0.156752,0.186035 -0.156752,0.535713 v 0.959459 h -0.318672 z"
           style="font-style:normal;-inkscape-font-specification:Hack"
           id="path10553" />
        <path
           d="m 62.126532,40.979604 q -0.354845,0 -0.502984,-0.142972 -0.146417,-0.144694 -0.146417,-0.492649 v -1.0542 h -0.515042 v -0.246324 h 0.515042 v -0.504707 l 0.316949,-0.137804 v 0.642511 h 0.720025 v 0.246324 H 61.79408 v 1.0542 q 0,0.211874 0.08096,0.298001 0.08096,0.0844 0.282498,0.0844 h 0.356567 v 0.253215 z"
           style="font-style:normal;-inkscape-font-specification:Hack"
           id="path10555" />
      </g>
      <g
         aria-label="extract"
         id="text790-3-7-6-6"
         style="font-style:italic;font-size:3.52778px;line-height:1.25;font-family:Hack;-inkscape-font-specification:'Hack Italic';letter-spacing:0px;word-spacing:0px;stroke-width:0.264583">
        <path
           d="m 73.819759,41.364594 q -0.44614,0 -0.701078,-0.266995 -0.253214,-0.268718 -0.253214,-0.732083 0,-0.287666 0.09991,-0.52021 0.10163,-0.232544 0.299723,-0.368626 0.199816,-0.137803 0.492649,-0.137803 0.385851,0 0.597725,0.248047 0.213596,0.246324 0.213596,0.683851 v 0.15503 h -1.372872 v 0.01034 q 0,0.301446 0.158475,0.480591 0.158474,0.179145 0.468533,0.179145 0.179145,0 0.346232,-0.05684 0.16881,-0.05684 0.325562,-0.137804 v 0.315227 q -0.163642,0.06718 -0.332452,0.106798 -0.167087,0.04134 -0.342787,0.04134 z m 0.43236,-1.186836 q 0,-0.160197 -0.04823,-0.289388 -0.04823,-0.129192 -0.155029,-0.204984 -0.105076,-0.07579 -0.279053,-0.07579 -0.1757,0 -0.294556,0.07751 -0.117133,0.07579 -0.184313,0.204983 -0.06546,0.129191 -0.08268,0.287666 z"
           style="font-style:normal;-inkscape-font-specification:Hack"
           id="path10558" />
        <path
           d="m 75.664609,40.308672 -0.690742,-0.923287 h 0.3514 l 0.511597,0.697633 0.508152,-0.697633 h 0.356567 l -0.690742,0.923287 0.757922,1.005968 H 76.40186 L 75.836864,40.541216 75.27359,41.31464 h -0.366903 z"
           style="font-style:normal;-inkscape-font-specification:Hack"
           id="path10560" />
        <path
           d="m 78.289773,41.32153 q -0.354845,0 -0.502984,-0.142971 -0.146417,-0.144694 -0.146417,-0.492649 v -1.0542 H 77.12533 v -0.246325 h 0.515042 v -0.504706 l 0.316949,-0.137804 v 0.64251 h 0.720026 v 0.246325 h -0.720026 v 1.0542 q 0,0.211873 0.08096,0.298001 0.08096,0.08441 0.282498,0.08441 h 0.356568 v 0.253214 z"
           style="font-style:normal;-inkscape-font-specification:Hack"
           id="path10562" />
        <path
           d="m 79.543789,39.385385 h 0.287666 l 0.031,0.377239 q 0.08096,-0.204984 0.24288,-0.313504 0.163642,-0.110243 0.391018,-0.110243 0.237712,0 0.413412,0.120578 v 0.323839 Q 80.72373,39.63171 80.468793,39.63171 q -0.292834,0 -0.449586,0.187758 -0.156752,0.186035 -0.156752,0.535712 v 0.95946 h -0.318671 z"
           style="font-style:normal;-inkscape-font-specification:Hack"
           id="path10564" />
        <path
           d="m 82.024259,41.364594 q -0.279053,0 -0.461643,-0.160197 -0.180867,-0.16192 -0.180867,-0.463366 0,-0.249769 0.120578,-0.389296 0.120578,-0.141249 0.315226,-0.198093 0.194648,-0.05684 0.415135,-0.05684 h 0.425469 v -0.04995 q 0,-0.246324 -0.125746,-0.342787 -0.124023,-0.09646 -0.349677,-0.09646 -0.1757,0 -0.34451,0.04823 -0.16881,0.04823 -0.315226,0.134359 v -0.316949 q 0.158474,-0.05857 0.320394,-0.09646 0.161919,-0.0379 0.330729,-0.0379 0.172255,0 0.334175,0.04823 0.163642,0.04651 0.282498,0.155029 0.118855,0.106798 0.158474,0.287666 0.02756,0.127469 0.02756,0.384128 v 0.394464 q 0,0.16192 0.01723,0.35829 0.01895,0.196371 0.0844,0.347955 h -0.318671 q -0.02928,-0.06718 -0.04651,-0.142972 -0.01723,-0.07751 -0.02756,-0.149861 -0.10163,0.173977 -0.282498,0.258382 -0.179145,0.0844 -0.378961,0.0844 z m 0.07752,-0.265273 q 0.196371,0 0.318672,-0.09646 0.124023,-0.09646 0.180867,-0.251492 0.05684,-0.156752 0.05684,-0.335897 v -0.07062 h -0.401354 q -0.134358,0 -0.26355,0.03101 -0.127468,0.02928 -0.211873,0.113688 -0.08268,0.0844 -0.08268,0.246325 0,0.18259 0.111965,0.273885 0.111966,0.08957 0.291111,0.08957 z"
           style="font-style:normal;-inkscape-font-specification:Hack"
           id="path10566" />
        <path
           d="m 84.485782,41.364594 q -0.304891,0 -0.513319,-0.127469 -0.206706,-0.129191 -0.313504,-0.35829 -0.105076,-0.229099 -0.105076,-0.5271 0,-0.299723 0.106798,-0.5271 0.106798,-0.229099 0.315227,-0.356567 0.208428,-0.129191 0.516764,-0.129191 0.160197,0 0.289389,0.0379 0.129191,0.03617 0.26355,0.110243 v 0.332452 q -0.122301,-0.108521 -0.246325,-0.160197 -0.122301,-0.05168 -0.279053,-0.05168 -0.232544,0 -0.37207,0.09991 -0.137804,0.09991 -0.199816,0.268718 -0.06029,0.168809 -0.06029,0.375515 0,0.204984 0.06201,0.375516 0.06201,0.16881 0.199816,0.268718 0.137804,0.09991 0.368626,0.09991 0.151584,0 0.282498,-0.04995 0.130913,-0.04995 0.244602,-0.158474 v 0.329007 q -0.246325,0.148139 -0.559829,0.148139 z"
           style="font-style:normal;-inkscape-font-specification:Hack"
           id="path10568" />
        <path
           d="m 86.785384,41.32153 q -0.354845,0 -0.502984,-0.142971 -0.146416,-0.144694 -0.146416,-0.492649 v -1.0542 h -0.515043 v -0.246325 h 0.515043 v -0.504706 l 0.316949,-0.137804 v 0.64251 h 0.720025 v 0.246325 h -0.720025 v 1.0542 q 0,0.211873 0.08096,0.298001 0.08096,0.08441 0.282498,0.08441 h 0.356568 v 0.253214 z"
           style="font-style:normal;-inkscape-font-specification:Hack"
           id="path10570" />
      </g>
      <path
         style="fill:none;stroke:#000000;stroke-width:0.365;stroke-linecap:butt;stroke-linejoin:miter;stroke-dasharray:none;stroke-opacity:1;marker-end:url(#RoundedArrow-0)"
         d="m 56.575616,22.33769 v 4.077605"
         id="path4870-74" />
      <path
         style="fill:none;stroke:#000000;stroke-width:0.365;stroke-linecap:butt;stroke-linejoin:miter;stroke-dasharray:none;stroke-opacity:1;marker-end:url(#RoundedArrow-6-3)"
         d="m 63.795015,40.053732 h 5.205454"
         id="path4870-8-52" />
      <path
         style="fill:none;stroke:#000000;stroke-width:0.365;stroke-linecap:butt;stroke-linejoin:miter;stroke-dasharray:none;stroke-opacity:1;marker-end:url(#RoundedArrow-2-0)"
         d="m 56.575616,31.880382 v 4.077605"
         id="path4870-7-5" />
    </g>
    <path
       id="rect7309"
       style="fill:none;stroke:#808080;stroke-width:0.365001;stop-color:#000000"
       d="m 30.147595,38.621571 h 41.50033 c 0.544359,0 0.982597,0.438238 0.982597,0.982596 v 24.32234 c 0,0.544358 -0.438238,0.982596 -0.982597,0.982596 h -41.50033 c -0.544358,0 -0.982596,-0.438238 -0.982596,-0.982596 v -24.32234 c 0,-0.544358 0.438238,-0.982596 0.982596,-0.982596 z" />
  </g>
</svg>
