<?xml version="1.0" encoding="UTF-8"?>
<svg width="357.89" height="83.787" version="1.1" viewBox="0 0 94.691 22.169" xmlns="http://www.w3.org/2000/svg">
<g transform="translate(-10.169 -73.773)">
<g stroke-width=".26458" aria-label="LabxPipe">
<g fill="#08a">
<path d="m12.234 90.26q-0.43462 0-0.73096-0.29633-0.27658-0.29633-0.27658-0.73096v-13.375q0-0.43462 0.29633-0.73096t0.7112-0.29633q0.43462 0 0.73096 0.29633t0.29633 0.73096v12.347h7.1515q0.43462 0 0.73096 0.29633t0.29633 0.73096q0 0.43462-0.29633 0.73096t-0.73096 0.29633z"/>
<path d="m28.217 90.339q-1.4422 0-2.588-0.7112-1.1458-0.73096-1.8175-1.9558-0.65194-1.2446-0.65194-2.8053 0-1.5607 0.7112-2.8053 0.73096-1.2446 1.9558-1.9558 1.2446-0.73096 2.7855-0.73096t2.7658 0.73096q1.2248 0.7112 1.936 1.9558 0.73096 1.2446 0.73096 2.8053h-0.77047q0 1.5607-0.67169 2.8053-0.65194 1.2248-1.7978 1.9558-1.1458 0.7112-2.588 0.7112zm0.39511-1.778q1.0075 0 1.7978-0.47413 0.79022-0.49389 1.2446-1.3236 0.45438-0.84949 0.45438-1.8965 0-1.0668-0.45438-1.8965-0.45438-0.84949-1.2446-1.3236-0.79022-0.49389-1.7978-0.49389-0.98778 0-1.7978 0.49389-0.79022 0.47413-1.2644 1.3236-0.45438 0.82974-0.45438 1.8965 0 1.047 0.45438 1.8965 0.47413 0.82974 1.2644 1.3236 0.80998 0.47413 1.7978 0.47413zm4.4253 1.7187q-0.43462 0-0.73096-0.27658-0.27658-0.29633-0.27658-0.73096v-3.0226l0.37536-2.0941 1.6397 0.7112v4.4055q0 0.43462-0.29633 0.73096-0.27658 0.27658-0.7112 0.27658z"/>
<path d="m42.48 90.339q-1.5409 0-2.7658-0.7112-1.2248-0.73096-1.936-1.9756-0.7112-1.2446-0.73096-2.8053v-9.0086q0-0.45438 0.27658-0.73096 0.29633-0.27658 0.73096-0.27658 0.45438 0 0.73096 0.27658 0.27658 0.27658 0.27658 0.73096v5.334q0.69145-0.82974 1.6595-1.3039 0.98778-0.49389 2.1534-0.49389 1.4422 0 2.588 0.73096 1.1458 0.7112 1.7978 1.9558 0.67169 1.2248 0.67169 2.7855 0 1.5607-0.73096 2.8053-0.7112 1.2446-1.936 1.9756-1.2248 0.7112-2.7855 0.7112zm0-1.778q1.0075 0 1.7978-0.47413 0.79022-0.49389 1.2446-1.3434 0.47413-0.84949 0.47413-1.8965 0-1.0668-0.47413-1.8965-0.45438-0.82974-1.2446-1.3039-0.79022-0.49389-1.7978-0.49389-0.98778 0-1.7978 0.49389-0.79022 0.47413-1.2446 1.3039-0.45438 0.82974-0.45438 1.8965 0 1.047 0.45438 1.8965t1.2446 1.3434q0.80998 0.47413 1.7978 0.47413z"/>
</g>
<path d="m58.522 90.26q-0.19756 0-0.37536-0.05927-0.1778-0.05927-0.33585-0.25682l-3.4572-4.1487-0.7112-0.7112-3.4375-4.0697q-0.25682-0.31609-0.27658-0.67169-0.01976-0.37536 0.19756-0.63218 0.21731-0.25682 0.65194-0.25682 0.47413 0 0.75071 0.33585l3.3782 4.0301 0.51365 0.47413 3.7141 4.445q0.29633 0.3556 0.27658 0.7112 0 0.33584-0.25682 0.57291-0.23707 0.23707-0.63218 0.23707zm-7.5466 0q-0.39511 0-0.63218-0.23707-0.21731-0.25682-0.21731-0.61242t0.27658-0.7112l3.3585-4.2079 1.0668 1.5014-3.1411 3.9511q-0.29633 0.31609-0.7112 0.31609zm4.8796-5.0772-1.3631-1.1656 3.1807-4.2277q0.15804-0.19756 0.33584-0.25682 0.1778-0.07902 0.39511-0.07902 0.43462 0 0.65194 0.27658 0.21731 0.25682 0.19756 0.63218 0 0.37536-0.27658 0.73096z" fill="#00aad4"/>
<g fill="#edae49">
<path d="m63.164 90.26q-0.43462 0-0.73096-0.29633t-0.29633-0.73096v-13.375q0-0.45438 0.29633-0.73096 0.29633-0.29633 0.73096-0.29633h3.9511q1.4817 0 2.6275 0.65194 1.1458 0.65194 1.778 1.8175 0.65194 1.1458 0.65194 2.6472 0 1.4422-0.65194 2.5682-0.63218 1.1261-1.778 1.7582-1.1458 0.63218-2.6275 0.63218h-2.9238v4.3265q0 0.43462-0.29633 0.73096-0.27658 0.29633-0.73096 0.29633zm1.0273-7.2503h2.9238q0.90876 0 1.6002-0.39511t1.0866-1.0866 0.39511-1.5804q0-0.94827-0.39511-1.6595-0.39511-0.73096-1.0866-1.1458-0.69145-0.41487-1.6002-0.41487h-2.9238z"/>
<path d="m75.452 90.26q-0.43462 0-0.73096-0.27658-0.27658-0.29633-0.27658-0.73096v-8.7912q0-0.45438 0.27658-0.73096 0.29633-0.27658 0.73096-0.27658 0.45438 0 0.73096 0.27658 0.27658 0.27658 0.27658 0.73096v8.7912q0 0.43462-0.27658 0.73096-0.27658 0.27658-0.73096 0.27658zm0-12.565q-0.5334 0-0.92851-0.37536-0.37536-0.39511-0.37536-0.92851 0-0.5334 0.37536-0.90876 0.39511-0.39511 0.92851-0.39511t0.90876 0.39511q0.39511 0.37536 0.39511 0.90876 0 0.5334-0.39511 0.92851-0.37536 0.37536-0.90876 0.37536z"/>
<path d="m81.221 94.883q-0.43462 0-0.73096-0.29633-0.27658-0.27658-0.27658-0.7112v-9.0086q0.01976-1.5607 0.73096-2.8053 0.7112-1.2446 1.936-1.9558 1.2248-0.73096 2.7658-0.73096 1.5607 0 2.7855 0.73096 1.2248 0.7112 1.936 1.9558 0.73096 1.2446 0.73096 2.8053 0 1.5607-0.67169 2.8053-0.65194 1.2248-1.7978 1.9558-1.1458 0.7112-2.588 0.7112-1.1656 0-2.1534-0.47413-0.96802-0.49389-1.6595-1.3236v5.334q0 0.43462-0.27658 0.7112-0.27658 0.29633-0.73096 0.29633zm4.4253-6.3218q1.0075 0 1.7978-0.47413 0.79022-0.49389 1.2446-1.3236 0.47414-0.84949 0.47414-1.8965 0-1.0668-0.47414-1.8965-0.45438-0.84949-1.2446-1.3236-0.79022-0.49389-1.7978-0.49389-0.98778 0-1.7978 0.49389-0.79022 0.47413-1.2446 1.3236-0.45438 0.82974-0.45438 1.8965 0 1.047 0.45438 1.8965 0.45438 0.82974 1.2446 1.3236 0.80998 0.47413 1.7978 0.47413z"/>
<path d="m99.179 90.339q-1.6397 0-2.9238-0.69145-1.2644-0.7112-1.9953-1.936-0.7112-1.2446-0.7112-2.8448 0-1.62 0.67169-2.8448 0.69145-1.2446 1.8965-1.936 1.2051-0.7112 2.7658-0.7112 1.5409 0 2.6472 0.69145 1.1063 0.67169 1.6792 1.8768 0.59267 1.1853 0.59267 2.746 0 0.37536-0.25683 0.63218-0.25682 0.23707-0.65193 0.23707h-7.9615v-1.5804h7.9022l-0.80998 0.55316q-0.0198-0.98778-0.39511-1.7582-0.37535-0.79022-1.0668-1.2446-0.69145-0.45438-1.6792-0.45438-1.1261 0-1.936 0.49389-0.79022 0.49389-1.2051 1.3631-0.41487 0.84949-0.41487 1.936t0.49389 1.936q0.49389 0.84949 1.3631 1.3434 0.86925 0.49389 1.9953 0.49389 0.61242 0 1.2446-0.21731 0.65193-0.23707 1.047-0.5334 0.29633-0.21731 0.63218-0.21731 0.3556-0.01976 0.61242 0.19756 0.33584 0.29633 0.3556 0.65194 0.0198 0.3556-0.31609 0.61242-0.67169 0.5334-1.6792 0.86925-0.98778 0.33584-1.8965 0.33584z"/>
</g>
</g>
</g>
</svg>
